<?xml version="1.0" encoding="UTF-8" standalone="no"?>
<!-- Created with Inkscape (http://www.inkscape.org/) -->

<svg
   width="47.978687"
   height="48.196789"
   viewBox="0 0 12.69436 12.752066"
   version="1.1"
   id="svg1"
   xmlns="http://www.w3.org/2000/svg">
  <defs
     id="defs1" />
  <g
     id="layer1"
     transform="translate(-0.065374,-0.05698087)">
    <path
       style="stroke-width:0.0497799"
       d="m 0.06571753,12.74568 c 5.4668e-4,-0.116605 -0.0300924,-0.111176 0.62963161,-0.111635 0.32668226,-1.61e-4 0.65072096,0.0056 0.72008606,0.01288 0.1166388,0.01236 0.1268523,0.01658 0.1358935,0.05688 0.00542,0.02397 0.00739,0.04571 0.00431,0.04829 -0.025709,0.0224 -0.3092572,0.03796 -0.84985646,0.04662 L 0.065374,12.809047 Z M 4.8186756,12.78767 C 3.9029114,12.77368 3.7985238,12.7629 3.8330561,12.685809 c 0.00776,-0.01728 0.047626,-0.02791 0.1284086,-0.03424 0.2262667,-0.01772 5.0050988,-0.02869 6.0373972,-0.01388 0.5739951,0.0083 1.1845171,0.0093 1.3567161,0.0023 0.172199,-0.007 0.550038,-0.0083 0.839646,-0.0029 l 0.526557,0.0098 v 0.0787 0.0787 h -0.3916 c -0.215381,0 -0.628672,-0.01121 -0.918427,-0.02499 -0.289755,-0.01375 -0.551098,-0.02122 -0.580766,-0.0166 -0.02966,0.0046 -0.173529,0.01211 -0.319694,0.01667 -0.437563,0.01365 -4.9153543,0.02021 -5.6926184,0.0083 z M 2.2285812,12.061817 C 1.9811648,12.043316 1.779813,11.93451 1.6841145,11.767589 l -0.05324,-0.09288 V 10.415137 9.1555656 l 0.052576,-0.091693 c 0.06724,-0.1172668 0.1861604,-0.2108191 0.3284713,-0.258391 0.095486,-0.031919 0.1478356,-0.037628 0.3494978,-0.038137 0.1480733,-4.358e-4 0.2657057,0.00752 0.3130889,0.020948 0.1172421,0.033295 0.2465865,0.109889 0.3027228,0.1792795 0.1066163,0.1317662 0.1052372,0.1129982 0.1052372,1.4414059 0,1.213212 -3.349e-4,1.22469 -0.040866,1.317436 C 2.98729,11.85074 2.8439645,11.974618 2.70238,12.0196 2.5952344,12.05365 2.3780889,12.07299 2.2285923,12.0618 Z m 0.2671106,-0.475241 0.055469,-0.0475 v -1.129002 c 0,-1.2685766 0.00985,-1.1840918 -0.1423134,-1.214259 -0.097283,-0.019279 -0.1874926,-0.00522 -0.2312029,0.036213 -0.032481,0.030734 -0.034734,0.09744 -0.039573,1.169501 l -0.00517,1.136905 0.055838,0.04783 c 0.047355,0.04057 0.0707,0.04784 0.1536375,0.04784 0.082791,0 0.1063084,-0.0073 0.1532594,-0.0475 z m 3.4796854,0.448325 c -0.2144428,-0.04669 -0.3583051,-0.158478 -0.4173707,-0.324335 -0.02646,-0.07431 -0.029883,-0.233545 -0.028098,-1.308946 0.00197,-1.1999759 0.00283,-1.2261434 0.041691,-1.3151352 0.086066,-0.1970269 0.2719286,-0.3047345 0.5563535,-0.3224029 0.3266908,-0.020298 0.5881893,0.04354 0.7204123,0.1758417 0.1178578,0.1179421 0.1372516,0.191038 0.1466586,0.5528884 l 0.00837,0.320986 H 6.731685 6.46001 V 9.552689 c 0,-0.1480036 -0.0085,-0.2746539 -0.01954,-0.2923771 -0.025635,-0.041043 -0.1163803,-0.080365 -0.1854155,-0.080365 -0.075908,0 -0.1693534,0.02997 -0.1820897,0.058398 -0.00579,0.012997 -0.01565,0.5311234 -0.021818,1.1513991 -0.010096,1.008425 -0.00813,1.133035 0.01874,1.17745 0.037825,0.06265 0.082446,0.08314 0.1810912,0.08314 0.1005952,0 0.1791531,-0.03535 0.2059789,-0.09269 0.013101,-0.02801 0.023234,-0.19684 0.026386,-0.439604 l 0.00517,-0.394138 -0.1233382,1.2e-5 -0.1233382,1.3e-5 -3.952e-4,-0.195028 -3.953e-4,-0.195028 H 6.6256536 7.01026 l -0.00197,0.2316 c -0.00112,0.127384 -0.00763,0.440038 -0.014677,0.694796 -0.014381,0.524496 -0.013421,0.520978 -0.175021,0.646814 -0.1456022,0.11338 -0.2357599,0.138833 -0.5103986,0.144092 -0.1479686,0.0028 -0.2731672,-0.0033 -0.3328386,-0.01628 z m 3.78944,-0.0032 c -0.2595013,-0.04824 -0.4181316,-0.184093 -0.4738,-0.405761 -0.014209,-0.05656 -0.016425,-0.447011 -0.00726,-1.284342 l 0.013089,-1.2030764 0.063374,-0.1102204 c 0.073532,-0.1278773 0.1784636,-0.20357 0.3441626,-0.2482596 0.1404776,-0.037883 0.4447302,-0.037896 0.5981362,-1.4e-5 0.217031,0.053594 0.382599,0.1973926 0.425767,0.3697964 0.02844,0.1135971 0.02753,2.420181 -0.001,2.508182 -0.02693,0.08309 -0.177157,0.263531 -0.252547,0.303335 -0.1694,0.08944 -0.454984,0.117751 -0.7098686,0.07036 z M 10.152357,11.59395 c 0.03697,-0.02073 0.04048,-0.04216 0.05218,-0.318709 0.0069,-0.163069 0.01253,-0.679845 0.01253,-1.148393 V 9.2749642 l -0.05775,-0.049465 c -0.05339,-0.045732 -0.06564,-0.048905 -0.1624144,-0.042024 -0.1944629,0.013813 -0.1779896,-0.096293 -0.1813153,1.2118328 -0.00283,1.101388 -0.0016,1.142441 0.033257,1.175672 0.019885,0.01893 0.05324,0.04075 0.074111,0.04847 0.048266,0.01787 0.1777237,0.0034 0.2293957,-0.02548 z M 0.06542694,10.404628 V 8.7688615 l 0.14517487,0.010449 c 0.0798483,0.00573 0.19512036,0.010449 0.25616334,0.010449 H 0.5777524 V 10.195605 11.60145 H 0.94776571 1.317779 v 0.219409 0.21941 H 0.69160237 0.06542694 Z m 3.43454306,0.0065 4.81e-5,-1.6293184 H 3.7803698 4.0607204 L 4.1981333,9.253133 c 0.075576,0.2592294 0.1755393,0.5954806 0.222137,0.747225 0.046591,0.151744 0.098884,0.354876 0.1161832,0.451402 0.017299,0.09652 0.035879,0.171713 0.041285,0.167081 0.00542,-0.0046 0.008,-0.419858 0.00566,-0.9227266 l -0.00419,-0.9143055 0.2577148,-0.00166 0.2577172,-0.00166 -0.00185,1.5862311 c -9.493e-4,0.872426 -0.00653,1.606544 -0.01219,1.631371 l -0.010466,0.04513 -0.2572924,-0.0045 -0.2572924,-0.0045 -0.072535,-0.211284 C 4.4431203,11.704856 4.3853734,11.518354 4.3546703,11.40662 4.3239746,11.294883 4.255725,11.053533 4.2029993,10.870285 4.150276,10.687038 4.0880104,10.438373 4.064642,10.317699 4.025413,10.115191 4.021129,10.103923 4.009074,10.171426 c -0.00714,0.04023 -0.013704,0.477216 -0.01448,0.97109 l -0.00135,0.897953 H 3.7465639 3.4998888 Z m 3.925762,1.613069 c -0.00112,-0.0045 -0.0032,-0.735837 -0.0048,-1.625257 l -0.00271,-1.6171291 0.4648868,0.00459 c 0.5326514,0.00522 0.6328243,0.017393 0.7433892,0.0901 0.2210929,0.1453839 0.2478523,0.2305301 0.2397886,0.7630487 l -0.00591,0.3937224 -0.068237,0.113763 c -0.055838,0.09308 -0.082446,0.119675 -0.146368,0.146272 -0.042972,0.01788 -0.078432,0.03784 -0.078814,0.04437 -3.94e-4,0.0065 0.032136,0.02621 0.072264,0.04373 0.1038212,0.04536 0.1869447,0.133729 0.2214623,0.23543 0.024724,0.07285 0.028837,0.16999 0.024219,0.57283 l -0.00554,0.485106 -0.074936,0.103824 c -0.041211,0.0571 -0.1089803,0.12495 -0.15059,0.150762 -0.1297876,0.08053 -0.2216052,0.09257 -0.7469526,0.09801 -0.2635202,0.0027 -0.4800266,0.0013 -0.4811274,-0.0032 z M 8.3251535,11.57226 c 0.031447,-0.02376 0.033614,-0.05957 0.028467,-0.46908 -0.00542,-0.43662 -0.00628,-0.443911 -0.048795,-0.480344 -0.036766,-0.03147 -0.067203,-0.03784 -0.2039819,-0.04272 l -0.160769,-0.0057 v 0.518629 0.518628 l 0.1755185,-0.0069 c 0.1241175,-0.0048 0.1854917,-0.01436 0.2095657,-0.03256 z m -0.026534,-1.439943 c 0.038502,-0.02987 0.03993,-0.04506 0.03993,-0.4276971 0,-0.2393363 -0.00776,-0.4090617 -0.019405,-0.4278017 -0.031311,-0.050128 -0.094082,-0.069152 -0.241042,-0.073077 l -0.1380236,-0.0037 v 0.4873423 0.4873425 l 0.1593086,-0.0057 c 0.1235734,-0.0045 0.1682663,-0.01261 0.199239,-0.0367 z m 2.6963355,1.863252 c 0.02123,-0.05641 0.14719,-0.407557 0.322044,-0.89777 0.07492,-0.210063 0.166068,-0.463392 0.202532,-0.562952 l 0.0663,-0.181019 -0.04798,-0.135906 C 11.511454,10.143176 11.442921,9.9467135 11.385529,9.7813435 11.328139,9.6159747 11.263325,9.4367882 11.2415,9.3831561 11.191634,9.2606394 11.033003,8.8080949 11.033003,8.7883763 c 0,-0.00803 0.119213,-0.014692 0.264921,-0.014692 h 0.264917 l 0.02102,0.069076 c 0.01157,0.037985 0.07106,0.2226605 0.132205,0.4103767 0.06116,0.1877161 0.117033,0.3742141 0.124163,0.4144414 0.02158,0.1216629 0.04026,0.1290419 0.06528,0.02579 0.01251,-0.051632 0.03476,-0.1184901 0.04944,-0.1485797 0.01468,-0.030084 0.05661,-0.1482394 0.09319,-0.2625666 0.03658,-0.1143234 0.09079,-0.2736893 0.120493,-0.35414 l 0.05398,-0.1462746 0.240476,-0.00459 c 0.202919,-0.00382 0.242236,-6.103e-4 0.251754,0.02063 0.0062,0.013851 -0.0246,0.1256003 -0.06846,0.2483387 -0.158284,0.4430209 -0.228234,0.6351485 -0.351602,0.9656968 -0.117882,0.315872 -0.123822,0.338989 -0.09803,0.381935 0.03585,0.05972 0.229308,0.639627 0.372373,1.116267 0.03185,0.106105 0.08777,0.261201 0.124261,0.344659 0.0365,0.08346 0.06635,0.15958 0.06635,0.169161 0,0.01172 -0.08468,0.01595 -0.260906,0.0129 l -0.260907,-0.0045 -0.17731,-0.536333 c -0.09752,-0.294985 -0.181633,-0.547306 -0.186917,-0.560715 -0.0053,-0.01341 -0.02884,0.05608 -0.05235,0.154399 -0.0338,0.141365 -0.169838,0.560225 -0.292852,0.901655 -0.01444,0.04009 -0.0157,0.04029 -0.282399,0.04451 l -0.267893,0.0042 z M 4.9176308,8.0953538 C 4.8423383,8.064148 4.7166865,8.0148738 4.6384143,7.9858342 4.560142,7.9567946 4.4160125,7.8913887 4.3181248,7.8404758 4.2202384,7.7895706 4.0366538,7.703512 3.9101611,7.6492492 3.7836659,7.5949379 3.6161311,7.5194745 3.5378589,7.4815039 3.2250088,7.3297349 2.5702111,7.0338333 2.059458,6.8134129 1.762931,6.6854451 1.5130151,6.574487 1.5040884,6.5668416 1.4951,6.5591963 1.4880202,5.9662883 1.4882049,5.2492722 1.4884979,4.1972816 1.4837723,3.9440474 1.463998,3.9375336 1.450491,3.9330736 1.38005,3.9504286 1.3074535,3.9760406 1.2348695,4.0016656 1.1285072,4.0357126 1.0711076,4.0516916 1.0137056,4.0676836 0.89102973,4.1058336 0.79849069,4.1364656 0.70594799,4.1670976 0.61325502,4.1899446 0.59250186,4.1872176 0.56232328,4.1832677 0.5328219,4.1301708 0.44522644,3.9222327 0.38498009,3.7792112 0.29206182,3.5707724 0.23874386,3.4590357 0.1854296,3.347299 0.14169466,3.2469245 0.14157153,3.2359802 0.14123786,3.2092724 0.18544191,3.1908217 0.75791029,2.978722 2.4574287,2.3490424 3.0051607,2.1557324 3.6327435,1.9641172 3.7736335,1.9210994 4.076759,1.8261225 4.3063575,1.7530534 4.5359561,1.6799894 4.8390815,1.5848545 4.9799716,1.5416532 5.2633941,1.4547384 5.2882659,1.4467363 5.9382111,1.2330234 6.188681,1.1506702 6.5003466,1.0506742 6.6307991,1.0108216 6.7612528,0.97097661 6.9576463,0.90848865 7.0672262,0.87198468 7.2937589,0.79651238 7.6583989,0.68125244 8.5567665,0.40115376 8.9011643,0.29377489 9.2891235,0.16982983 9.4188963,0.12571619 9.5486716,0.08160255 9.6603213,0.05109762 9.6670108,0.05794021 c 0.00665,0.0068808 0.049066,0.10019224 0.094168,0.20746408 0.045102,0.10726419 0.1362506,0.31404528 0.2025449,0.45950689 0.066292,0.14546288 0.1205293,0.28894052 0.1205293,0.31884022 0,0.053543 -0.0026,0.055238 -0.1755181,0.1124885 -0.1938361,0.064195 -0.5740862,0.2015849 -0.7334048,0.2649915 -0.087593,0.034863 -0.098625,0.044063 -0.075896,0.063304 0.024761,0.020974 0.3509617,0.1388433 0.5341486,0.1930195 0.1364475,0.040355 1.2189673,0.3750041 1.5702063,0.4854118 0.182635,0.057404 0.372076,0.113699 0.420981,0.1250779 0.04891,0.011341 0.09292,0.029651 0.09784,0.040597 0.0049,0.010958 0.01145,0.6292259 0.01468,1.3739577 l 0.0058,1.3540581 -0.426166,0.1976144 C 11.082514,5.3629623 10.758388,5.5129066 10.596627,5.5874895 10.163882,5.7870101 9.8940803,5.9116916 9.6383873,6.0303117 9.5131517,6.0884163 9.1886784,6.2368278 8.9173359,6.3601293 8.6459921,6.483436 8.3215188,6.6332338 8.1962845,6.6930255 8.0710489,6.7528121 7.8276945,6.8661136 7.6554956,6.9447943 7.4832967,7.0234777 7.2143268,7.1479605 7.0577824,7.2214284 6.9012379,7.2949002 6.6493434,7.4120307 6.4980183,7.4817307 6.1848321,7.6259806 5.7445781,7.8332777 5.5208023,7.9418582 5.4373094,7.9823658 5.2982577,8.0462299 5.2117926,8.0837673 L 5.0545832,8.1520147 Z M 5.3268012,7.7151826 C 5.3917264,7.6872134 5.5772046,7.6005152 5.738966,7.5225034 5.9996592,7.3967757 6.3305869,7.2418033 7.4846708,6.7049637 7.6568697,6.624866 8.0325752,6.451416 8.3195734,6.3195249 8.801474,6.098066 9.5458039,5.7531552 9.9324518,5.572144 10.021165,5.5306171 10.268785,5.4157152 10.482729,5.3168099 c 0.213943,-0.098905 0.487718,-0.2273089 0.60839,-0.2853434 0.120665,-0.058041 0.236721,-0.1102204 0.257889,-0.1159799 0.03667,-0.00994 0.03908,-0.027842 0.05099,-0.3784981 0.01463,-0.4305578 0.01693,-1.9555301 0.003,-1.9555301 -0.01732,0 -0.368756,0.1455559 -1.147919,0.4754512 C 9.8323638,3.2358681 9.3499226,3.4387933 9.1829431,3.5078537 9.0159623,3.5769167 8.704298,3.7066964 8.4903526,3.7962578 8.2764098,3.885823 8.0287866,3.9882248 7.9400768,4.0238279 7.8513633,4.0594297 7.5547452,4.1809678 7.280913,4.2939099 7.0070809,4.4068571 6.7792135,4.49926 6.7745408,4.49926 c -0.00468,0 -0.3426261,0.1420709 -0.7510084,0.3157145 C 5.6151513,4.9886182 5.2581119,5.137524 5.230114,5.1458765 l -0.050901,0.015189 0.014098,0.8027141 c 0.00776,0.4414957 0.00899,1.0276095 0.00259,1.3024826 -0.00628,0.2748705 -0.00603,0.4997647 6.698e-4,0.4997647 0.00665,0 0.065258,-0.022872 0.1301816,-0.050842 z M 4.8657608,6.4617551 4.8653656,5.17374 4.614301,5.0693046 C 4.4762145,5.0118626 4.2391495,4.9124438 4.0874871,4.8483643 3.9358394,4.7842836 3.7522561,4.7116617 3.6795381,4.68698 3.5045221,4.6275757 3.1513157,4.4869001 2.6164135,4.2635477 2.3757557,4.1630624 2.1580168,4.0752925 2.1325503,4.0685086 2.1070875,4.0617552 2.0285567,4.0314159 1.9580427,4.0011658 l -0.1282029,-0.055008 0.00493,1.2061207 0.00493,1.2061207 0.1802637,0.087374 c 0.099142,0.048064 0.3809237,0.1769757 0.6261767,0.28648 0.4388109,0.1959285 0.8815335,0.3999713 1.461078,0.6733829 0.4636174,0.2187205 0.7293355,0.3409543 0.7447707,0.3426057 0.00788,7.836e-4 0.014073,-0.5780862 0.013876,-1.2864937 z M 2.7977892,6.5660631 C 2.6526956,6.5124437 2.5219894,6.4495608 2.5556414,6.4495608 c 0.023062,0 0.4129689,0.1601202 0.4129689,0.1695915 0,0.0051 -0.00209,0.00854 -0.0048,0.0079 -0.00259,-6.97e-4 -0.077349,-0.02816 -0.166077,-0.060946 z m -0.4411233,-0.18831 c -0.049571,-0.021547 -0.090129,-0.036506 -0.090129,-0.03327 0,0.015928 -0.1457117,-0.048956 -0.1750715,-0.077944 -0.03274,-0.03234 -0.043833,-0.060768 -0.023702,-0.060768 0.00899,0 0.3179919,0.1538524 0.388528,0.1934107 0.056109,0.031461 -0.011205,0.016973 -0.099623,-0.021433 z M 2.0254625,5.9660475 C 2.0172129,5.9325226 2.010367,5.5284483 2.010367,5.0680954 c 0,-0.7710063 0.00259,-0.840175 0.033208,-0.8771912 0.020981,-0.025395 0.03338,-0.031371 0.033663,-0.016259 2.438e-4,0.013163 0.0048,0.2104317 0.01022,0.4383713 0.011574,0.4885044 -0.00899,1.4139734 -0.031348,1.4139734 -0.00862,0 -0.022372,-0.027434 -0.030671,-0.060946 z M 3.5947869,5.8471114 C 3.4643332,5.7922306 3.1996322,5.6817451 3.0065607,5.6016015 2.8134892,5.5214528 2.6354786,5.4399433 2.6109824,5.4204566 2.5236479,5.3509859 2.4877649,5.2651439 2.4789723,5.1046949 l -0.00825,-0.1503113 0.078383,-0.067139 c 0.06969,-0.059685 0.085734,-0.066107 0.144771,-0.057901 0.03652,0.0051 0.2007904,0.071497 0.3650538,0.1476112 0.1642633,0.076109 0.3840498,0.1719043 0.4884116,0.2128719 0.3062873,0.1202358 0.3408246,0.1367994 0.4171601,0.2000392 0.1131419,0.093732 0.1424537,0.1454131 0.1425337,0.2513101 9.73e-5,0.1060282 -0.056085,0.2277153 -0.1222411,0.2648437 -0.093922,0.052715 -0.1419661,0.045451 -0.3900178,-0.058907 z M 5.2749398,4.8087168 C 5.3683937,4.7700186 5.6113602,4.6680361 5.8148668,4.5820884 6.0183746,4.496142 6.2318434,4.4080345 6.2892443,4.3862962 6.3466464,4.364558 6.6284215,4.2488113 6.9154185,4.1290788 7.4868772,3.8906702 7.5072351,3.8825126 7.7692963,3.7869789 8.185975,3.6350774 10.386212,2.7015476 10.39998,2.6708172 c 0.01316,-0.029384 -0.02608,-0.089361 -0.05849,-0.089361 -0.01433,0 -0.131437,0.04828 -0.26024,0.1073025 C 9.8492938,2.7950413 9.6173682,2.8899073 8.9931899,3.1338002 8.8157741,3.2031179 8.4913007,3.3346166 8.2721385,3.4260052 8.0529762,3.5173926 7.8181607,3.6101918 7.7503248,3.6322244 7.6335259,3.670158 7.5039772,3.7215603 6.6687483,4.0613258 6.4756768,4.1398689 6.2579379,4.2260039 6.1848838,4.2527397 6.0017708,4.3197512 5.544822,4.5000692 5.406908,4.5597309 c -0.062623,0.02709 -0.199239,0.076428 -0.3036007,0.109647 -0.2516938,0.08011 -0.313089,0.1057606 -0.313089,0.1308067 0,0.011468 0.027753,0.036596 0.061675,0.055735 0.093134,0.052562 0.2149402,0.038978 0.4230554,-0.04721 z M 4.8608271,4.599781 C 4.9941891,4.5460342 5.1957059,4.464661 5.3086423,4.4189622 5.421575,4.3732558 5.605162,4.3025619 5.7166048,4.2618593 c 0.1114428,-0.040711 0.2642885,-0.09902 0.3396537,-0.1295886 0.075366,-0.030569 0.1403926,-0.055569 0.1445026,-0.055569 0.00419,0 0.1559165,-0.061023 0.3373463,-0.1356004 0.5748571,-0.2363036 0.8351575,-0.3398407 0.9685897,-0.3852642 0.048635,-0.016565 0.121096,-0.045095 0.1610066,-0.063418 0.039918,-0.018323 0.078789,-0.033321 0.086399,-0.033321 0.00763,0 0.1101992,-0.03959 0.2279818,-0.087985 C 8.0998681,3.3227179 8.3305527,3.2314095 8.4947175,3.1682055 8.6588836,3.105004 8.8552759,3.0281045 8.9311434,2.9973256 9.0070147,2.9665531 9.2270536,2.8793835 9.4201251,2.8036372 9.7462951,2.6756656 10.057382,2.5448869 10.078358,2.5269216 c 0.0049,-0.0042 -5.59e-4,-0.022936 -0.01219,-0.041578 C 10.033022,2.4323104 9.9619285,2.4438804 9.7829256,2.5314451 9.6077371,2.6171367 9.4176108,2.6917896 8.4239585,3.0650456 8.1177869,3.180057 7.8809583,3.2734182 7.1111496,3.5825844 c -0.2315391,0.092993 -0.426066,0.169073 -0.4322802,0.169073 -0.00616,0 -0.1369771,0.050281 -0.2905837,0.111724 C 6.2346803,3.9248245 6.0195849,4.0098089 5.9102969,4.0522252 5.8010088,4.0946442 5.4978845,4.2154126 5.236684,4.3206074 4.9754836,4.4258074 4.6917248,4.5316495 4.6061105,4.5558203 4.4228966,4.607541 4.3996402,4.6247431 4.4423224,4.6769353 c 0.04472,0.054677 0.1308502,0.0388 0.4185269,-0.077154 z M 4.3727639,4.4797491 C 4.440595,4.4526464 4.5558732,4.4066469 4.6289273,4.3775181 4.7019789,4.3484021 4.8642168,4.2900299 4.9894524,4.2478059 5.114688,4.2055909 5.3879291,4.1012051 5.5966538,4.0158461 6.2206093,3.7606751 6.3279864,3.7186856 6.5264312,3.6522641 6.6307942,3.6173376 6.8271865,3.5413429 6.9628583,3.4833886 7.098529,3.4254369 7.36323,3.3185384 7.5510834,3.2458338 7.7389355,3.1731265 7.9566744,3.0882989 8.0349479,3.0573289 8.1132201,3.0263525 8.258379,2.971701 8.3575238,2.9358698 8.9782422,2.7115541 9.5951855,2.4720624 9.6850219,2.4205481 9.7088101,2.4069139 9.7077143,2.3999184 9.677388,2.3711592 9.6289126,2.3252871 9.5822226,2.3291098 9.4997074,2.3857235 9.4611808,2.4121509 9.3613538,2.4599726 9.2778647,2.4919938 9.1943718,2.5240151 9.10966,2.5580751 9.0896148,2.5677082 9.0695696,2.5773923 8.8679949,2.6532469 8.6416765,2.7364181 8.4153581,2.8195867 8.145711,2.9238615 8.0424611,2.9681497 7.9392063,3.0124418 7.7396595,3.0876465 7.5990133,3.1352795 7.4583658,3.18291 7.2107413,3.2779213 7.0487362,3.346407 6.6835076,3.5008022 6.4633788,3.5873551 5.8718416,3.8091581 5.6161548,3.9050307 5.3343747,4.0144636 5.2456662,4.0523399 5.1569527,4.0902226 4.8965255,4.1852963 4.6669282,4.2636267 4.1366482,4.4445372 4.0448098,4.4891962 4.1021183,4.5382819 c 0.022594,0.019355 0.1384841,-0.00573 0.2706961,-0.058525 z M 4.0269428,4.3632341 C 4.0971255,4.3331114 4.2143221,4.2863728 4.2873762,4.2593848 4.6009096,4.1435323 4.8822427,4.0445238 4.9704772,4.018982 5.0226587,4.0038825 5.1497473,3.9552708 5.252895,3.9109788 5.356039,3.8666867 5.5296564,3.7978022 5.6387007,3.7579049 5.7477425,3.718009 5.9237843,3.6496086 6.0298981,3.6058964 6.1360095,3.5621905 6.3466427,3.4827044 6.497969,3.4292838 6.6492941,3.3758556 6.9313549,3.2662188 7.1247699,3.1856432 7.318185,3.105074 7.582886,3.0024557 7.7129962,2.9576157 8.1153625,2.8189483 8.9525553,2.4991295 9.2161445,2.383393 9.3947485,2.3049645 9.4344251,2.270828 9.3711363,2.2500289 9.3114071,2.2303931 9.2667364,2.2412367 9.1755567,2.2973026 9.1244833,2.3287377 8.9985189,2.3864091 8.8956309,2.4254883 8.7927455,2.4645687 8.6189028,2.5328671 8.5093229,2.5772866 8.3997393,2.621706 8.1563886,2.7109348 7.9685353,2.7755852 7.7806819,2.8402393 7.5415964,2.9288947 7.4372334,2.972607 7.3328704,3.0163129 7.0425515,3.12807 6.7920815,3.2209443 6.2511215,3.4215302 5.482581,3.713158 5.0084276,3.8977638 4.5850594,4.0625962 4.3408702,4.152169 4.1037227,4.2296253 3.9003971,4.2960378 3.8224869,4.3395399 3.8224869,4.3866798 c 0,0.046191 0.057599,0.03959 0.2044559,-0.023446 z M 3.5825443,4.2782688 C 3.6362403,4.2550524 3.7399458,4.2151565 3.8129999,4.1896083 4.05507,4.1049743 4.3407705,4.0003312 4.6289273,3.890767 4.7854705,3.831248 5.0160184,3.7458393 5.141254,3.7009739 5.2664883,3.6561085 5.4927661,3.568856 5.6440924,3.507079 5.7954175,3.4453046 6.0515809,3.3477309 6.2133435,3.290257 6.3751061,3.2327895 6.7038483,3.1112005 6.9438831,3.0200718 7.3911812,2.8502547 8.4294094,2.4676867 8.4429682,2.4676867 c 0.00419,0 0.1211207,-0.044496 0.2599126,-0.098867 C 9.0620145,2.2281173 9.1434278,2.1672514 9.0311157,2.1234207 8.9894862,2.1071743 8.956291,2.1160302 8.7607212,2.1951977 8.6381107,2.2448542 8.4865529,2.3014425 8.4239364,2.3209254 8.3613137,2.3404083 8.2118897,2.3953019 8.0918735,2.4429069 7.8752612,2.5288278 7.8053628,2.5544525 7.275946,2.7421151 6.7008981,2.9459438 5.7691975,3.291516 5.606142,3.3614543 5.5487399,3.3860723 5.373698,3.4523447 5.2171535,3.5087151 5.0606091,3.5650868 4.7233268,3.6911726 4.4676387,3.7889004 4.2119506,3.8866207 3.9387095,3.9871901 3.8604373,4.0123752 3.594915,4.0978119 3.3805153,4.1826013 3.3601672,4.2102316 c -0.015933,0.021624 -0.010589,0.036392 0.025093,0.068885 0.056626,0.051632 0.076105,0.051542 0.1972837,-7.836e-4 z M 3.2448644,4.0830564 c 0.123066,-0.06403 0.4662227,-0.2067569 0.5871107,-0.2442051 0.04174,-0.012933 0.1314018,-0.044674 0.1992377,-0.070541 0.067831,-0.025867 0.208726,-0.077333 0.313089,-0.1143617 C 4.4486647,3.6169197 4.6066313,3.5586749 4.6953399,3.5245142 4.7840533,3.4903523 5.0231339,3.4021505 5.2266405,3.3285156 5.4301483,3.2548782 5.6478872,3.172492 5.710505,3.1454402 5.7731277,3.1183884 6.0420939,3.0177553 6.308217,2.9218126 6.5743426,2.8258635 6.8945471,2.7097192 7.0197827,2.6636981 7.1450183,2.6176731 7.3499482,2.5445454 7.4751826,2.5011937 7.6004181,2.4578446 7.7711937,2.3951401 7.8546841,2.3618662 c 0.083493,-0.03327 0.245727,-0.091502 0.3605263,-0.1294076 0.4254983,-0.1404781 0.5028372,-0.172084 0.5028372,-0.2055005 0,-0.039679 -0.081461,-0.067687 -0.1598393,-0.054945 -0.032112,0.00522 -0.1053357,0.027154 -0.1627353,0.048726 C 8.3380709,2.0423252 8.1843756,2.0975628 8.0539218,2.1434986 7.9234693,2.1894471 7.6929215,2.2731688 7.5415964,2.3295634 7.3902701,2.3859605 7.1893787,2.4574764 7.0951701,2.4884948 7.0009651,2.5195094 6.8600726,2.5724407 6.7820836,2.6061057 6.7040945,2.6397707 6.5548934,2.6948936 6.4505316,2.7285841 6.3461687,2.7622746 6.111352,2.8462205 5.928718,2.9151216 5.7460828,2.9840189 5.4045316,3.1116873 5.1697149,3.1988174 4.9348995,3.2859489 4.6830062,3.3807499 4.6099521,3.4094913 4.5369005,3.4382378 4.3575835,3.5020764 4.2114754,3.5513749 4.0653684,3.6006746 3.7963973,3.6995327 3.6137621,3.7710702 3.4311269,3.8426052 3.2219281,3.9200003 3.1488741,3.9430561 2.9205794,4.0151007 2.8888851,4.046179 2.9806571,4.108012 3.0519603,4.1560503 3.1162021,4.149985 3.2448644,4.08305 Z M 2.9401481,3.8614395 C 3.0653837,3.8167652 3.2808459,3.7340935 3.4189521,3.6777244 3.5570594,3.6213527 3.6894105,3.5701799 3.7130658,3.5640254 3.7581551,3.5523025 4.0231652,3.4570797 4.3443018,3.3372708 4.4486647,3.2983305 4.6621336,3.2226798 4.8186781,3.169142 4.9752213,3.1156119 5.278348,3.0048219 5.4922921,2.9229543 5.706235,2.8410854 5.987493,2.73757 6.1173113,2.692916 6.2471285,2.6482672 6.4050963,2.5910546 6.4683494,2.565774 6.5813437,2.5206282 6.6698651,2.4884413 6.9913205,2.3755973 7.080034,2.3444552 7.1782246,2.3089808 7.2095322,2.2967738 7.3673461,2.2351905 7.9306255,2.0281164 8.0665732,1.9817053 8.2457547,1.9205298 8.2927623,1.8949434 8.2739152,1.8688218 8.251703,1.8380493 8.1568085,1.847453 8.0402313,1.8919999 7.9799234,1.9150379 7.785426,1.981718 7.608009,2.0401756 7.4305919,2.098637 7.2384709,2.1667188 7.18107,2.191491 7.1236679,2.2162619 6.9742415,2.2711045 6.8490071,2.3133833 6.5676839,2.4083385 5.8599229,2.6669104 5.7521234,2.7141153 5.6596422,2.7546102 5.1861635,2.9254033 4.7238021,3.0850458 4.546385,3.1463105 4.3286473,3.2252538 4.2399388,3.2604886 4.1512253,3.2957209 3.9804547,3.3577247 3.8604373,3.3982577 3.7404248,3.4387908 3.5226822,3.52094 3.376574,3.5807929 3.1098648,3.6900576 2.7632457,3.8123474 2.6128281,3.8502518 c -0.086879,0.021904 -0.1086602,0.065138 -0.047552,0.094433 0.04866,0.023331 0.1214531,0.00714 0.3748731,-0.083232 z M 1.1104075,3.7180969 C 1.2923002,3.6549591 1.5948174,3.5533652 1.7826708,3.4923464 1.9705229,3.4313238 2.2352252,3.3395466 2.370897,3.2883852 2.8545769,3.105994 2.9616474,3.0663886 3.158361,2.9971078 c 0.1095836,-0.038596 0.226891,-0.075332 0.2606896,-0.08164 0.033799,-0.00637 0.066378,-0.018285 0.072387,-0.026618 C 3.4974705,2.8805672 3.471035,2.8134283 3.43273,2.7397642 3.394425,2.6661013 3.3379956,2.554929 3.3073405,2.492715 3.2766818,2.4304947 3.2483747,2.3768371 3.2444346,2.3734731 3.2306197,2.3616229 2.100164,2.757207 1.4980416,2.9845579 1.1002285,3.134766 0.57801959,3.3396791 0.5653239,3.3505533 c -0.007388,0.00624 0.20185174,0.4823499 0.21193959,0.4823499 0.001354,0 0.15124875,-0.05167 0.33314031,-0.1148076 z M 4.1830107,2.7067643 C 4.3552096,2.6486215 4.6028341,2.5679516 4.7332878,2.5274912 4.8637415,2.4870346 5.1070959,2.4087335 5.2740754,2.3535073 5.4410562,2.2982825 5.6429757,2.2322394 5.7227858,2.206746 5.8025971,2.1812615 6.0160659,2.1099687 6.1971608,2.048323 6.7406548,1.8633184 6.9105242,1.8075074 7.2382124,1.7062817 7.5115816,1.6218389 7.7413956,1.5497497 8.3859823,1.3462548 9.0351579,1.1413111 9.6299678,0.94075711 9.6625055,0.91584475 9.6818489,0.90103826 9.6757171,0.87640751 9.6318714,0.7926655 9.6017297,0.73509605 9.5538947,0.62772865 9.525563,0.55407595 9.497231,0.48042575 9.466807,0.41632595 9.457954,0.4116368 9.449084,0.4069218 9.396402,0.4186448 9.3408473,0.4377584 9.2852923,0.4568081 9.1587305,0.4965256 9.0595869,0.5259984 8.9604441,0.55547122 8.7725883,0.61283679 8.6421345,0.653482 8.511682,0.694117 8.217093,0.78547505 7.9874969,0.85648502 7.7578971,0.92749753 7.4547717,1.0235167 7.3138829,1.0698691 7.1729916,1.1162254 6.9894096,1.174878 6.9059192,1.2002057 6.8224263,1.2255373 6.6729999,1.2718681 6.5738563,1.3031504 6.4747139,1.3344326 6.3082035,1.3866631 6.2038417,1.4192067 6.0994788,1.4517504 5.9671276,1.4958386 5.9097292,1.5171818 5.804295,1.5563897 5.531081,1.644566 4.7522507,1.8907206 4.5174352,1.9649315 4.184423,2.0707915 4.0122241,2.1259526 3.8400252,2.1811138 3.6735197,2.2340196 3.6422108,2.2435253 c -0.031311,0.00956 -0.063238,0.022044 -0.070946,0.02788 -0.01219,0.0093 0.061034,0.1688959 0.2151249,0.4689018 0.024219,0.047172 0.052933,0.082697 0.06378,0.078964 0.010835,-0.0037 0.1606299,-0.054358 0.3328288,-0.1125012 z m 7.8942863,2.1348211 c -0.04525,-0.072427 0.0016,-0.1310883 0.104609,-0.1310883 0.04885,0 0.07261,0.010449 0.09732,0.042737 0.03199,0.04182 0.03157,0.043578 -0.01959,0.081257 -0.06443,0.047478 -0.1549,0.050994 -0.182331,0.00714 z"
       id="path1" />
  </g>
</svg>
