<?xml version="1.0" encoding="UTF-8" standalone="no"?>
<!-- Created with Inkscape (http://www.inkscape.org/) -->

<svg
   width="83.025604"
   height="59.672054"
   viewBox="0 0 21.967191 15.788231"
   version="1.1"
   id="svg1"
   xmlns="http://www.w3.org/2000/svg">
  <defs
     id="defs1" />
  <g
     id="layer1"
     transform="translate(-0.1567128,-0.05059993)">
    <path
       d="M 8.7850817,15.728317 C 8.6490638,15.667447 8.4220566,15.571352 8.2806514,15.514715 8.1392498,15.458076 7.8788628,15.330503 7.7020213,15.231214 7.5251745,15.131921 7.1935193,14.964084 6.9649986,14.858252 6.7364743,14.752329 6.4338077,14.605146 6.2924024,14.531089 5.7272115,14.235085 4.5442616,13.65797 3.6215416,13.228072 3.0858395,12.978488 2.6343445,12.762081 2.618217,12.74717 2.6019578,12.732347 2.5891852,11.575873 2.5895284,10.177434 2.5900577,8.125675 2.5815794,7.6317772 2.5457909,7.619073 2.5213839,7.6103744 2.3941279,7.6442229 2.2629787,7.6941755 2.1318565,7.7441535 1.9396971,7.8105574 1.8360007,7.8417221 1.7323026,7.8729123 1.5106741,7.9473185 1.3434943,8.007062 1.1763127,8.0668053 1.0088492,8.1113652 0.97135706,8.1060466 0.91683428,8.0983427 0.86353995,7.9947844 0.70529008,7.5892307 0.59644317,7.3102874 0.4285859,6.9037569 0.33226226,6.6858301 0.23595307,6.4679034 0.15693294,6.272137 0.15671615,6.2507916 0.15611274,6.1987014 0.23597115,6.1627153 1.2701847,5.7490457 4.3405147,4.5209441 5.3300405,4.1439201 6.4638223,3.7702016 6.7183543,3.686301 7.2659761,3.5010623 7.680765,3.3585514 8.0955557,3.2160502 8.6431795,3.030503 8.8977098,2.9462449 9.4097362,2.7767295 9.4546695,2.7611226 10.628852,2.3443059 11.081348,2.1836879 11.6444,1.9886593 11.880073,1.9109325 12.11575,1.8332203 12.470551,1.7113463 12.668517,1.6401507 13.077768,1.4929531 13.736523,1.268154 15.359501,0.72186109 15.981686,0.51243363 16.682568,0.27069614 16.917015,0.18465876 17.151466,0.09862059 17.35317,0.03912488 17.365256,0.05247119 c 0.01211,0.01341847 0.08865,0.1954108 0.170126,0.40462957 0.08148,0.20920375 0.246148,0.61250124 0.365916,0.89620364 0.119759,0.2837049 0.217746,0.5635379 0.217746,0.621853 0,0.1044283 -0.0047,0.1077335 -0.317089,0.219393 -0.350182,0.1252034 -1.037136,0.3931631 -1.32496,0.5168287 -0.158239,0.067995 -0.178184,0.085939 -0.13712,0.1234656 0.04473,0.040907 0.634044,0.2707944 0.964987,0.3764574 0.246503,0.078707 2.20217,0.7313928 2.836714,0.9467275 0.329946,0.111958 0.672188,0.2217539 0.760539,0.2439469 0.08836,0.022119 0.167868,0.05783 0.176757,0.079179 0.0088,0.021371 0.02069,1.2272167 0.02652,2.6797114 l 0.01048,2.6409001 -0.769907,0.385419 c -0.423482,0.211985 -1.009043,0.504431 -1.301279,0.649895 -0.781792,0.389136 -1.269213,0.632311 -1.731144,0.863662 -0.226249,0.113316 -0.812439,0.402781 -1.302642,0.643262 -0.490207,0.240492 -1.076396,0.532653 -1.302643,0.649268 -0.226249,0.116609 -0.665889,0.337584 -0.976982,0.491039 -0.311092,0.153454 -0.79701,0.396246 -1.079823,0.539536 -0.28281,0.143292 -0.73788,0.371745 -1.011262,0.507684 -0.565798,0.281339 -1.361155,0.685643 -1.7654267,0.897413 -0.1508313,0.07902 -0.4020447,0.203563 -0.5582511,0.276774 l -0.2840138,0.133112 z m 0.7392014,-0.74147 c 0.1173017,-0.05455 0.4523767,-0.223643 0.7446119,-0.375795 0.470965,-0.245212 1.068816,-0.547466 3.153769,-1.594495 0.311093,-0.156224 0.989837,-0.49451 1.508324,-0.751745 0.870596,-0.431924 2.215293,-1.104625 2.913806,-1.457661 0.160263,-0.081 0.607616,-0.305093 0.994124,-0.497993 0.386507,-0.1929 0.881105,-0.4433344 1.09911,-0.5565226 0.217992,-0.1132012 0.427657,-0.2149693 0.465899,-0.2262024 0.06625,-0.019387 0.0706,-0.054302 0.09212,-0.7382074 0.02643,-0.8397426 0.03059,-3.8139867 0.0055,-3.8139867 -0.03129,0 -0.666189,0.2838863 -2.073816,0.9273007 -0.763671,0.3490334 -1.635243,0.7448105 -1.936907,0.8795031 -0.301666,0.1346977 -0.864714,0.3878148 -1.251225,0.5624916 -0.386507,0.174684 -0.833859,0.3744048 -0.994121,0.4438437 -0.160262,0.069437 -0.696136,0.3064792 -1.190837,0.5267569 -0.494702,0.2202877 -0.906365,0.4005065 -0.914806,0.4005065 -0.0085,0 -0.618984,0.2770893 -1.356764,0.6157568 -0.737775,0.3386677 -1.3827978,0.6290875 -1.4333791,0.6453779 l -0.091955,0.029624 0.02547,1.565582 c 0.014096,0.861074 0.016263,2.004206 0.00473,2.540308 -0.011382,0.536097 -0.010836,0.974722 0.00122,0.974722 0.012108,0 0.1178981,-0.0446 0.2351834,-0.09916 z M 8.6913735,12.542212 8.6906597,10.03012 8.2370894,9.8264334 C 7.9876229,9.7144008 7.5593442,9.5204983 7.2853535,9.3955203 7.0113881,9.2705399 6.6797294,9.1289011 6.5483579,9.0807628 6.2321762,8.9649032 5.5940787,8.6905351 4.6277314,8.2549177 4.1929616,8.0589352 3.799597,7.8877524 3.7535886,7.8745214 3.7075875,7.8613498 3.5657162,7.8021772 3.4383265,7.7431787 l -0.23161,-0.1072855 0.00885,2.352369 0.00885,2.3523688 0.3256626,0.170402 c 0.1791052,0.09373 0.6881709,0.345168 1.1312419,0.55874 0.7927505,0.382132 1.5925683,0.780087 2.6395654,1.313339 0.8375665,0.426584 1.3176095,0.664983 1.3454944,0.668204 0.014275,0.0015 0.025421,-1.127475 0.025079,-2.509126 z M 4.9554012,12.74565 C 4.693278,12.64107 4.4571443,12.518429 4.5179396,12.518429 c 0.04166,0 0.7460647,0.312292 0.7460647,0.330764 0,0.0099 -0.0038,0.01658 -0.00867,0.0154 -0.00469,-0.0014 -0.1397395,-0.05492 -0.3000326,-0.118879 z M 4.1584738,12.378378 c -0.089552,-0.04204 -0.1628277,-0.07121 -0.1628277,-0.06489 0,0.03106 -0.2632415,-0.09549 -0.3162829,-0.152012 -0.059148,-0.06307 -0.079182,-0.118523 -0.042817,-0.118523 0.01626,0 0.5744804,0.300068 0.7019099,0.377222 0.1013676,0.06135 -0.020252,0.0331 -0.1799723,-0.0418 z M 3.5601266,11.575405 c -0.014995,-0.06538 -0.027279,-0.853477 -0.027279,-1.7513301 0,-1.5037395 0.00469,-1.6386432 0.059997,-1.7108381 0.037902,-0.049529 0.060304,-0.061185 0.06081,-0.03171 4.408e-4,0.025672 0.00867,0.4104175 0.018464,0.8549817 0.020902,0.9527592 -0.01626,2.7577565 -0.056637,2.7577565 -0.015537,0 -0.040414,-0.0535 -0.055408,-0.118874 z m 2.8351212,-0.23197 C 6.1595713,11.2364 5.6813658,11.020912 5.332566,10.864605 4.9837646,10.708283 4.662174,10.549311 4.6179179,10.511307 4.4601487,10.375815 4.3953157,10.20839 4.3794303,9.8954571 L 4.3644357,9.602296 4.506036,9.4713509 c 0.1259011,-0.116407 0.1548787,-0.1289324 0.2615415,-0.1129276 0.065977,0.00994 0.3627466,0.1394449 0.659502,0.287895 0.2967555,0.1484396 0.69382,0.3352748 0.8823591,0.4151767 0.5533342,0.234504 0.6157284,0.266808 0.7536361,0.390148 0.2044009,0.182808 0.2573537,0.283608 0.2574983,0.490145 1.77e-4,0.206793 -0.1013134,0.444126 -0.2208391,0.516541 -0.1696747,0.102823 -0.256474,0.08864 -0.7045999,-0.114896 z M 9.4305912,9.3181934 C 9.5994169,9.2427189 10.038364,9.0438155 10.406017,8.8761866 10.773672,8.708561 11.15932,8.5367189 11.26302,8.4943214 c 0.103698,-0.042397 0.612753,-0.268145 1.131238,-0.5016664 1.032392,-0.4649825 1.06917,-0.4808927 1.542606,-0.6672178 0.752767,-0.2962625 4.727688,-2.1169813 4.752561,-2.1769165 0.02378,-0.05731 -0.04712,-0.1742861 -0.105667,-0.1742861 -0.02588,0 -0.237453,0.094163 -0.470147,0.2092784 -0.419048,0.2072893 -0.838043,0.3923121 -1.965676,0.8679909 -0.320517,0.1351951 -0.906706,0.3916642 -1.302643,0.5699048 -0.395936,0.1782376 -0.820149,0.3592301 -0.942701,0.4022015 -0.211007,0.073984 -0.445049,0.1742374 -1.953963,0.8369021 -0.3488,0.1531871 -0.742165,0.3211815 -0.874143,0.3733259 C 10.743675,8.3645338 9.9181573,8.7162197 9.6690028,8.8325814 9.5558744,8.8854166 9.30906,8.9816434 9.1205217,9.0464324 8.6658156,9.2026758 8.5548985,9.2527037 8.5548985,9.3015526 c 0,0.022367 0.050133,0.071375 0.1114304,0.1087031 0.168248,0.1025149 0.3883084,0.076021 0.7642876,-0.092077 z M 8.6824598,8.9106935 C 8.9233899,8.8058675 9.2874481,8.6471609 9.491477,8.5580318 c 0.2040232,-0.089143 0.535689,-0.2270224 0.737021,-0.306407 0.201331,-0.079401 0.47746,-0.1931247 0.613613,-0.2527444 0.136162,-0.059621 0.253632,-0.1083791 0.261057,-0.1083791 0.0076,0 0.281678,-0.1190164 0.609445,-0.2644694 1.038529,-0.4608771 1.508786,-0.6628117 1.749843,-0.7514038 0.08786,-0.032308 0.21877,-0.087951 0.290873,-0.1236879 0.07212,-0.035736 0.142341,-0.064988 0.156089,-0.064988 0.01373,0 0.199084,-0.077215 0.411869,-0.1716024 0.212786,-0.094387 0.629539,-0.2724722 0.926117,-0.3957427 0.29658,-0.1232647 0.651379,-0.2732474 0.78844,-0.3332773 0.137066,-0.060019 0.534589,-0.2300295 0.883389,-0.377762 0.589254,-0.2495906 1.151261,-0.504656 1.189155,-0.5396949 0.0088,-0.00819 -9.77e-4,-0.044734 -0.02202,-0.081092 -0.05989,-0.103433 -0.188318,-0.080867 -0.511702,0.089914 -0.316494,0.1671301 -0.659974,0.3127294 -2.455095,1.0407128 -0.553124,0.2243134 -0.980977,0.4064014 -2.371703,1.0093866 -0.418297,0.1813698 -0.769725,0.3297531 -0.780953,0.3297531 -0.0112,0 -0.247461,0.098066 -0.524963,0.2179021 C 11.164446,7.5942856 10.775858,7.7600356 10.57842,7.8427627 10.380981,7.9254943 9.8333594,8.1610368 9.3614787,8.3662044 8.8895979,8.5713822 8.3769628,8.7778123 8.2222931,8.8249541 7.8913013,8.9258281 7.8492854,8.9593788 7.9263942,9.0611719 8.007185,9.1678119 8.162788,9.1368452 8.6824997,8.9106939 Z M 7.8007315,8.6765882 C 7.9232723,8.6237272 8.1315339,8.5340129 8.2635126,8.4772009 8.3954835,8.4204138 8.6885845,8.3065679 8.9148323,8.2242155 9.1410818,8.1418815 9.6347162,7.9382913 10.011796,7.7718105 11.139025,7.2741354 11.333011,7.1922408 11.69152,7.062695 11.88006,6.9945771 12.23486,6.8463587 12.479963,6.733327 12.725065,6.6203 13.203271,6.4118098 13.542643,6.2700097 13.882014,6.128205 14.275379,5.9627601 14.416787,5.9023575 14.558189,5.8419435 14.820436,5.735352 14.999549,5.6654685 16.12093,5.2279723 17.235494,4.7608773 17.39779,4.6604059 c 0.04298,-0.026591 0.04099,-0.040235 -0.01373,-0.096327 -0.08756,-0.089467 -0.171914,-0.082011 -0.320996,0.028405 -0.06961,0.051543 -0.249946,0.1448123 -0.400777,0.2072653 -0.150832,0.062453 -0.303877,0.1288817 -0.34009,0.1476695 -0.0362,0.01888 -0.400376,0.1668318 -0.809239,0.329045 -0.408865,0.1622094 -0.896006,0.365582 -1.082536,0.4519599 -0.186539,0.086385 -0.547039,0.2330617 -0.801128,0.3259632 -0.254091,0.092895 -0.701447,0.2782028 -0.994124,0.4117745 -0.659816,0.3011261 -1.057498,0.4699354 -2.126162,0.902531 C 10.047088,7.5556796 9.5380284,7.7691124 9.3777677,7.8429847 9.2175053,7.9168698 8.7470153,8.1022975 8.3322267,8.25507 7.3742295,8.6079105 7.2083161,8.6950116 7.311848,8.7907464 7.3526585,8.8284953 7.5620314,8.7795654 7.800884,8.6766013 Z M 7.1759755,8.449342 C 7.3027618,8.3905913 7.5144921,8.2994354 7.6464706,8.2467986 8.2128971,8.0208445 8.7211503,7.8277424 8.8805522,7.7779267 8.9748202,7.7484782 9.2044192,7.6536673 9.390765,7.5672816 c 0.1863392,-0.086385 0.499993,-0.220735 0.696993,-0.2985491 0.196991,-0.077811 0.515027,-0.2112167 0.706731,-0.2964713 0.191701,-0.085243 0.572228,-0.2402686 0.845612,-0.344458 0.273382,-0.1042037 0.782949,-0.3180353 1.132371,-0.4751868 0.34942,-0.1571385 0.827626,-0.3572815 1.062681,-0.4447356 0.72691,-0.2704512 2.239372,-0.8942129 2.715569,-1.1199407 0.322663,-0.1529647 0.394343,-0.2195421 0.280006,-0.2601079 -0.107907,-0.038297 -0.188607,-0.017143 -0.353331,0.092202 -0.09226,0.06131 -0.319834,0.1737888 -0.50571,0.2500082 -0.185873,0.07622 -0.499933,0.2094268 -0.6979,0.2960609 -0.197972,0.086633 -0.637606,0.260662 -0.97698,0.3867535 -0.339373,0.1260986 -0.771303,0.2990086 -0.959844,0.3842634 -0.188541,0.085242 -0.713028,0.3032087 -1.165523,0.484347 C 11.194148,6.6126815 9.8057133,7.1814606 8.949114,7.5415082 8.184261,7.8629906 7.7431121,8.0376898 7.3146853,8.1887574 6.9473591,8.3182867 6.8066079,8.4031304 6.8066079,8.4950702 c 0,0.090089 0.1040594,0.077215 0.3693676,-0.045728 z M 6.3731298,8.2836298 C 6.4701436,8.2383501 6.6574903,8.1605386 6.7894687,8.1107108 7.2267894,7.9456441 7.7429315,7.7415525 8.2635126,7.5278629 8.546323,7.4117799 8.9628259,7.2452018 9.1890761,7.1576982 9.4153223,7.0701959 9.8241134,6.9000208 10.097497,6.7795334 10.37088,6.6590516 10.833662,6.4687473 11.125899,6.3566525 c 0.292239,-0.112082 0.88614,-0.3492246 1.319784,-0.5269583 0.808083,-0.3312044 2.683733,-1.0773495 2.708228,-1.0773495 0.0076,0 0.218816,-0.086783 0.469556,-0.1928262 0.648805,-0.2744202 0.795887,-0.3931307 0.592985,-0.4786162 -0.0752,-0.031686 -0.135186,-0.014414 -0.488492,0.1399909 -0.221506,0.09685 -0.495308,0.2072156 -0.608432,0.2452142 -0.113128,0.037999 -0.38308,0.14506 -0.5999,0.2379078 C 14.128299,4.871592 14.002022,4.9215692 13.045584,5.2875788 12.006709,5.685118 10.32351,6.359108 10.028937,6.4955129 9.9252385,6.5435271 9.609006,6.672781 9.326194,6.7827243 9.0433836,6.8926694 8.4340542,7.1385821 7.9721314,7.3291864 7.5102087,7.5197755 7.016573,7.7159226 6.8751678,7.7650426 6.3954791,7.9316755 6.0081467,8.0970447 5.9713863,8.1509336 c -0.028779,0.042175 -0.019132,0.070978 0.045328,0.1343506 0.102307,0.1007009 0.1374813,0.1005254 0.3564108,-0.00153 z M 5.7630813,7.9028953 C 5.9854109,7.7780138 6.605354,7.499645 6.8237487,7.4266077 6.8991557,7.4013837 7.0611379,7.3394773 7.1836896,7.2890273 7.3062305,7.2385774 7.5607715,7.1382001 7.7493123,7.0659809 7.9378532,6.9937613 8.2232325,6.8801624 8.3834932,6.8135373 8.5437556,6.7469094 8.9756814,6.5748841 9.3433336,6.4312695 9.7109882,6.2876509 10.104353,6.1269675 10.217477,6.0742067 c 0.113129,-0.052762 0.599045,-0.2490314 1.07982,-0.4361542 0.48078,-0.1871351 1.059257,-0.4136584 1.285506,-0.5034161 0.226248,-0.089765 0.596472,-0.2323905 0.82272,-0.3169419 0.226248,-0.084546 0.534769,-0.2068428 0.685602,-0.2717388 0.150832,-0.064889 0.443927,-0.1784618 0.651322,-0.2523913 0.768701,-0.2739828 0.90842,-0.3356256 0.90842,-0.4007999 0,-0.077388 -0.147164,-0.132014 -0.288764,-0.1071628 -0.05801,0.010187 -0.190297,0.05296 -0.293995,0.095033 -0.103698,0.042101 -0.381366,0.1498344 -0.617042,0.2394252 -0.235675,0.089616 -0.65218,0.2529035 -0.925562,0.3628932 -0.273384,0.1099943 -0.636311,0.2494764 -0.806508,0.3099734 -0.17018,0.06049 -0.424723,0.163725 -0.565617,0.2293836 -0.140895,0.065658 -0.41044,0.1731685 -0.598978,0.2388769 C 11.36586,5.3268945 10.941643,5.4906204 10.611699,5.6250023 10.281753,5.7593766 9.6647106,6.0083764 9.2404934,6.1783115 8.8162794,6.3482482 8.3612108,6.5331452 8.2292325,6.5892012 8.0972611,6.6452682 7.7733056,6.7697754 7.5093487,6.8659253 7.2453937,6.962078 6.759474,7.1548862 6.4295278,7.2944101 6.0995818,7.4339291 5.7216455,7.5848774 5.589667,7.6298444 5.1772321,7.7703581 5.119974,7.8309711 5.2857682,7.9515678 c 0.1288097,0.093692 0.244874,0.081863 0.4773131,-0.048684 z M 5.2125851,7.4706622 C 5.438835,7.3835318 5.8280859,7.2222916 6.0775865,7.1123516 6.3270889,7.002406 6.5661926,6.9026012 6.6089292,6.8905977 6.6903883,6.8677337 7.1691503,6.6820152 7.7493123,6.4483447 7.9378532,6.3723977 8.3235037,6.2248511 8.6063141,6.1204332 8.8891229,6.0160306 9.4367485,5.7999499 9.823257,5.6402786 c 0.386507,-0.159674 0.894624,-0.361566 1.129152,-0.4486574 0.234525,-0.087081 0.519908,-0.1986663 0.634181,-0.2479726 0.204134,-0.088051 0.364055,-0.1508271 0.944792,-0.3709129 0.160262,-0.060738 0.33766,-0.1299271 0.394219,-0.1537352 0.285105,-0.1201086 1.302718,-0.5239784 1.54832,-0.6144967 0.323708,-0.1193159 0.40863,-0.1692171 0.374581,-0.2201635 -0.04012,-0.060019 -0.211564,-0.041678 -0.42217,0.045205 -0.108955,0.044933 -0.460328,0.1749825 -0.780847,0.288996 -0.32052,0.1140199 -0.667603,0.2468047 -0.771302,0.2951193 -0.103699,0.048312 -0.373655,0.155274 -0.599901,0.2377338 C 11.766046,4.6365907 10.487414,5.1408993 10.292664,5.2329659 10.125591,5.3119456 9.2702099,5.6450534 8.4349121,5.9564137 8.114393,6.0759029 7.7210302,6.2298701 7.5607715,6.2985907 7.4005091,6.3673058 7.0919909,6.4882358 6.8751678,6.56729 6.6583556,6.6463438 6.2649839,6.8065645 6.0010269,6.9232992 5.5191938,7.1364047 4.8929962,7.3749138 4.6212529,7.448841 4.4642966,7.4915616 4.4249491,7.5758835 4.5353497,7.6330193 4.6232582,7.678523 4.7547652,7.6469448 5.2125906,7.4706869 Z M 1.9069996,7.1910925 C 2.2356034,7.0679507 2.7821269,6.8698066 3.1215016,6.750798 3.4608727,6.6317811 3.9390801,6.4527834 4.1841834,6.3530002 5.0579937,5.9972718 5.251425,5.920027 5.606806,5.7849046 5.8047792,5.7096286 6.0167045,5.6379801 6.0777654,5.6256772 6.138828,5.6132535 6.1976866,5.5900149 6.2085443,5.5737625 6.2193838,5.5576136 6.1716898,5.4266626 6.1024795,5.2829921 6.0332872,5.1393227 5.9313414,4.922497 5.8759515,4.8011573 5.8205615,4.679806 5.769417,4.5751538 5.7623171,4.5685928 5.7373501,4.545481 3.6950913,5.3170118 2.6073052,5.7604278 1.8886212,6.0533876 0.94520495,6.4530418 0.92226851,6.4742504 0.90889967,6.4864255 1.2869318,7.4150061 1.3051548,7.4150061 c 0.00253,0 0.2732446,-0.1007745 0.6018484,-0.2239161 z M 7.457926,5.2186304 C 7.7690186,5.1052303 8.2163729,4.9478958 8.4520493,4.8689835 8.6877241,4.7900774 9.1273666,4.6373632 9.4290285,4.5296523 9.7306944,4.4219433 10.095481,4.2931363 10.239665,4.243415 c 0.144183,-0.049704 0.529835,-0.18875 0.857,-0.3089819 0.981869,-0.3608254 1.288752,-0.4696769 1.880749,-0.6671034 0.493867,-0.1646943 0.909046,-0.3052937 2.073547,-0.7021819 1.172793,-0.3997139 2.24737,-0.7908663 2.306151,-0.8394544 0.03494,-0.028877 0.02387,-0.076917 -0.05534,-0.2402437 C 17.247326,1.3731674 17.160898,1.1637634 17.109721,1.0201142 17.05854,0.87647018 17.003566,0.75145214 16.987578,0.74230671 c -0.01608,-0.009206 -0.111195,0.0136721 -0.211564,0.0509473 -0.100356,0.0371544 -0.32901,0.11461674 -0.508121,0.17209972 -0.179105,0.057483 -0.518489,0.16936537 -0.754165,0.24863887 -0.235674,0.079253 -0.767874,0.2574338 -1.182659,0.3959288 -0.414793,0.1384989 -0.962414,0.3257719 -1.216943,0.4161757 -0.254532,0.090411 -0.586189,0.2048051 -0.737023,0.2542032 C 12.226271,2.3297063 11.956315,2.420067 11.777202,2.4810795 11.598097,2.5420915 11.297277,2.6439599 11.10874,2.707431 10.920199,2.770904 10.681095,2.856891 10.577399,2.8985175 10.386923,2.9749873 9.8933384,3.1469624 8.4863131,3.6270524 8.0620977,3.7717906 7.4604823,3.9782554 7.1493898,4.0858393 6.8382972,4.1934231 6.5374913,4.2966089 6.4809289,4.3151484 6.4243647,4.333794 6.3666803,4.3581417 6.3527515,4.3695239 6.3307289,4.3876626 6.4630075,4.6989317 6.7413937,5.2840511 6.7851488,5.3760539 6.8370164,5.44534 6.8566178,5.4380592 6.876201,5.4308425 7.14681,5.3320415 7.4579008,5.2186414 Z M 21.719645,9.382299 c -0.08175,-0.1412587 0.0029,-0.2556694 0.188986,-0.2556694 0.08825,0 0.131175,0.02038 0.175816,0.083353 0.05779,0.081565 0.05703,0.084992 -0.03539,0.1584804 -0.116399,0.092599 -0.27984,0.099457 -0.329397,0.013925 z"
       style="stroke-width:0.0934417"
       id="path1" />
  </g>
</svg>
