<?xml version="1.0" encoding="UTF-8" standalone="no"?>
<!-- Created with Inkscape (http://www.inkscape.org/) -->

<svg
   width="149.84792"
   height="59.75058"
   viewBox="0 0 39.64726 15.809008"
   version="1.1"
   id="svg1"
   xmlns="http://www.w3.org/2000/svg">
  <defs
     id="defs1" />
  <g
     id="layer1"
     transform="translate(-0.11273443,-0.00867104)">
    <path
       d="m 0.11376549,15.570771 c 0.001705,-0.454332 -0.09398624,-0.433177 1.96647701,-0.434967 1.0203006,-6.26e-4 2.0323457,0.02182 2.2489876,0.05019 0.3642897,0.04816 0.3961867,0.06459 0.4244276,0.221623 0.016832,0.0934 0.023115,0.178106 0.013505,0.188163 -0.080305,0.08727 -0.9658818,0.147896 -2.6542931,0.181653 L 0.11273443,15.81768 Z M 14.958304,15.734374 c -2.860135,-0.05452 -3.186159,-0.09651 -3.078307,-0.396883 0.02437,-0.06734 0.14875,-0.108747 0.401046,-0.13341 0.706682,-0.06905 15.632034,-0.111789 18.856131,-0.05408 1.792715,0.03233 3.699511,0.03625 4.237326,0.009 0.537816,-0.02726 1.717891,-0.03233 2.622402,-0.01118 l 1.644554,0.03818 v 0.306641 0.306641 h -1.223054 c -0.672683,0 -1.963483,-0.04368 -2.868452,-0.09736 -0.904969,-0.05357 -1.7212,-0.08268 -1.813859,-0.06467 -0.09264,0.01783 -0.541971,0.04719 -0.998476,0.06495 -1.366607,0.05319 -15.351743,0.07875 -17.779311,0.03233 z M 6.8688647,12.906219 C 6.0961303,12.834135 5.4672641,12.410189 5.1683754,11.759811 L 5.0020949,11.39792 V 6.4902185 1.5825209 L 5.1663066,1.225267 C 5.3763135,0.76835666 5.7477295,0.40384369 6.192199,0.21849176 6.490434,0.09412122 6.6539196,0.07187285 7.2837546,0.06988543 7.7462228,0.06818669 8.1136127,0.09910783 8.2616009,0.15151423 8.6277734,0.28126204 9.0317479,0.5796776 9.2070727,0.85004337 9.5400584,1.3634465 9.5357505,1.2903204 9.5357505,6.4662291 c 0,4.7270679 -0.00105,4.7717899 -0.1276507,5.1331579 C 9.2384863,12.083802 8.7908342,12.566471 8.348635,12.741735 8.0139936,12.874404 7.3358032,12.94976 6.8688901,12.906159 Z M 7.7031128,11.054525 7.8763474,10.86945 V 6.4704913 c 0,-4.9427878 0.030924,-4.6136068 -0.4444774,-4.7311471 C 7.1280432,1.6642226 6.84629,1.7190832 6.7097711,1.8804296 6.6083278,2.000164 6.6013014,2.2600874 6.5861916,6.4371852 l -0.016245,4.4297508 0.1744088,0.186362 c 0.1478884,0.158074 0.2208109,0.186399 0.4798446,0.186399 0.2585717,0 0.3320246,-0.02844 0.4786623,-0.185075 z m 10.8678262,1.746819 c -0.669752,-0.181914 -1.119066,-0.617481 -1.303541,-1.263714 -0.08263,-0.289535 -0.09332,-0.909967 -0.08776,-5.1000782 0.0063,-4.675496 0.0088,-4.777451 0.130213,-5.1241928 0.268816,-0.76768126 0.849294,-1.18734656 1.737617,-1.25618691 1.020328,-0.07909444 1.837045,0.16964663 2.250007,0.68513764 0.368097,0.45954027 0.428669,0.74434597 0.458049,2.15423117 l 0.02623,1.2506655 H 20.933058 20.084557 V 3.1298412 c 0,-0.5766718 -0.02654,-1.0701412 -0.06103,-1.1391959 -0.08007,-0.1599058 -0.363483,-0.3131476 -0.579093,-0.3131476 -0.237087,0 -0.528929,0.1167736 -0.568706,0.2275453 -0.0182,0.050653 -0.04887,2.0694277 -0.06815,4.4862245 -0.03155,3.9291505 -0.02531,4.4146725 0.05853,4.5877275 0.118158,0.244105 0.257508,0.32394 0.565587,0.32394 0.314181,0 0.559535,-0.137735 0.643318,-0.36115 0.04091,-0.109136 0.07255,-0.766953 0.08242,-1.7128399 l 0.01625,-1.5356896 -0.385214,4.66e-5 -0.385212,5.07e-5 -0.0012,-0.7598923 -0.0012,-0.7598925 h 1.201212 1.201213 l -0.0063,0.9023889 c -0.0035,0.4963293 -0.02374,1.7145308 -0.04586,2.7071507 -0.04492,2.0436074 -0.04193,2.0298994 -0.546629,2.5201974 -0.454751,0.441766 -0.73633,0.540939 -1.594088,0.561428 -0.462138,0.01081 -0.853161,-0.01283 -1.039527,-0.06343 z m 11.835263,-0.01242 c -0.810483,-0.187962 -1.305919,-0.717289 -1.479784,-1.58098 -0.04437,-0.220376 -0.05128,-1.7416999 -0.0228,-5.0042133 l 0.04089,-4.6875748 0.197917,-0.4294567 c 0.229652,-0.49825028 0.557381,-0.79317482 1.074896,-0.96729758 0.438743,-0.14759258 1.388992,-0.14767072 1.868114,-5.468e-5 0.677836,0.20880417 1.194941,0.76910347 1.329765,1.44084546 0.08882,0.4426106 0.08598,9.4298106 -0.0031,9.7726916 -0.0841,0.323745 -0.5533,1.026802 -0.78876,1.181892 -0.529073,0.348487 -1.421016,0.458795 -2.217079,0.274145 z m 1.210374,-1.705619 c 0.115457,-0.08077 0.126436,-0.16427 0.162978,-1.2417939 0.02155,-0.6353697 0.03912,-2.6488968 0.03912,-4.4745119 V 2.0477343 L 31.63832,1.855022 C 31.471564,1.6768426 31.433312,1.6644532 31.131063,1.6912975 30.523711,1.745106 30.575162,1.3161203 30.564775,6.4129923 c -0.0088,4.2913657 -0.0051,4.4513207 0.10387,4.5807997 0.06212,0.07376 0.166287,0.158776 0.231463,0.188856 0.150765,0.06963 0.555071,0.01324 0.716454,-0.09928 z M 0.11285538,6.449272 V 0.07579662 l 0.4534141,0.04071623 C 0.81565986,0.13872116 1.175673,0.15722908 1.3663229,0.15722908 H 1.7129602 V 5.6348616 11.11249 h 1.1556354 1.1556333 v 0.854889 0.854893 H 2.0685402 0.11285538 Z M 10.839695,6.474598 10.839846,0.12624607 h 0.8756 0.875595 l 0.429172,1.83642733 c 0.236054,1.0100403 0.548248,2.3201872 0.693784,2.9114311 0.1455,0.591244 0.308823,1.3827122 0.362865,1.758809 0.05404,0.3760731 0.11207,0.6690495 0.128922,0.6510017 0.01683,-0.017931 0.025,-1.6359031 0.01781,-3.5952439 l -0.01312,-3.56242924 0.8049,-0.006631 0.804907,-0.006631 -0.0059,6.18047094 c -0.0029,3.3992551 -0.02029,6.259618 -0.03807,6.356351 l -0.03266,0.175843 -0.80358,-0.01743 -0.803583,-0.01763 -0.226628,-0.823222 C 13.785269,11.515071 13.604902,10.788398 13.509006,10.353046 13.413124,9.9176828 13.199963,8.9773049 13.035305,8.263311 12.870649,7.5493212 12.676169,6.5804417 12.603185,6.1102567 12.480663,5.3212199 12.467295,5.2773158 12.429638,5.5403296 c -0.02218,0.1567483 -0.04279,1.8593884 -0.04523,3.7836819 l -0.0043,3.4987175 h -0.770441 -0.770421 z m 12.261025,6.28504 c -0.0035,-0.01763 -0.01001,-2.8670596 -0.01507,-6.3325286 l -0.0084,-6.30085962 1.451942,0.0179309 c 1.66359,0.020261 1.976454,0.0677569 2.321772,0.35105897 0.690523,0.56646315 0.774096,0.89821965 0.748911,2.97308275 l -0.0184,1.5340725 -0.213127,0.4432577 C 27.193932,5.8083223 27.11083,5.9119451 26.9112,6.0155757 c -0.134207,0.069666 -0.244953,0.1474362 -0.246141,0.1728801 -0.0012,0.025326 0.100386,0.1021223 0.225684,0.170386 0.324257,0.1767368 0.583872,0.5210516 0.691678,0.9173115 0.07722,0.2838475 0.09007,0.6623364 0.07565,2.2319318 l -0.01722,1.8901309 -0.234053,0.404532 c -0.128707,0.222479 -0.340372,0.486845 -0.470327,0.587417 -0.405356,0.313771 -0.692123,0.360684 -2.332899,0.381879 -0.823032,0.01062 -1.499229,0.005 -1.502666,-0.01242 z m 2.809092,-1.760893 c 0.09821,-0.09258 0.104967,-0.232104 0.08892,-1.8276878 C 25.981897,7.4698441 25.97906,7.4414359 25.84632,7.2994813 25.73147,7.1768637 25.63644,7.1520449 25.209239,7.1330301 l -0.502118,-0.022208 v 2.0207468 2.0207431 l 0.548185,-0.02688 c 0.387646,-0.01871 0.579331,-0.05595 0.654518,-0.126865 z M 25.826948,5.3882599 C 25.9472,5.2718775 25.951663,5.212691 25.951663,3.7218135 c 0,-0.9325306 -0.02437,-1.5938383 -0.0606,-1.6668555 C 25.793283,1.8596351 25.597231,1.7855273 25.138237,1.7702147 L 24.70716,1.7557895 v 1.8988429 1.8988464 l 0.497554,-0.022208 c 0.38595,-0.01753 0.525532,-0.049133 0.622268,-0.1429947 z m 8.421255,7.2598361 C 34.314518,12.428303 34.70791,11.06012 35.254018,9.1500912 35.488009,8.3316176 35.772684,7.3445656 35.88657,6.9566474 L 36.093644,6.2513387 35.943792,5.7218048 C 35.861339,5.4305546 35.647305,4.6650863 35.468056,4.0207513 35.288815,3.3764239 35.086386,2.6782532 35.018222,2.4692855 34.862467,1.9919195 34.367039,0.2286611 34.367039,0.15182957 c 0,-0.0311718 0.37233,-0.05723673 0.827408,-0.05723673 h 0.827394 l 0.06564,0.26915808 c 0.03613,0.14802134 0.221937,0.86755948 0.412906,1.59896218 0.191005,0.7314024 0.365518,1.458059 0.387788,1.6147966 0.06741,0.4740385 0.125732,0.5027895 0.203884,0.1004848 0.03906,-0.2011671 0.108568,-0.4616755 0.154406,-0.5789119 0.04584,-0.1172024 0.176797,-0.5775912 0.291053,-1.0230463 0.114243,-0.4454397 0.283557,-1.0663811 0.376326,-1.37984444 L 38.08244,0.12625694 38.8335,0.10832604 c 0.633761,-0.01480553 0.756556,-0.002384 0.786282,0.0803806 0.01937,0.0539651 -0.07682,0.48938217 -0.213815,0.96760936 -0.494355,1.7261543 -0.712823,2.4747471 -1.098129,3.7626696 -0.368173,1.2307397 -0.386724,1.3208112 -0.30617,1.4881428 0.111973,0.2326883 0.71618,2.4921944 1.163004,4.3493386 0.09946,0.413419 0.274124,1.017723 0.388093,1.342904 0.11399,0.325187 0.207226,0.621775 0.207226,0.659105 0,0.04566 -0.264475,0.06215 -0.814867,0.05027 l -0.81487,-0.01743 -0.553779,-2.089727 C 37.27191,9.5521297 37.009207,8.5690052 36.992703,8.5167592 c -0.01664,-0.05225 -0.09007,0.2185059 -0.163506,0.6015888 -0.105573,0.5508038 -0.530443,2.182818 -0.914644,3.513141 -0.04509,0.156209 -0.04903,0.156991 -0.881993,0.173419 l -0.83669,0.01643 z"
       style="stroke-width:0.173653"
       id="path1" />
  </g>
</svg>
